# 3ds Max Wavefront OBJ Exporter v0.97b - (c)2007 guruware
# File Created: 24.07.2013 18:09:16

mtllib EX1_3.mtl

#
# object Layer_0
#

v  73.1641 12.1531 30.0000
v  73.1641 2.1531 30.0000
v  83.1641 2.1531 30.0000
v  83.1641 12.1531 30.0000
v  43.1641 42.1531 40.0000
v  43.1641 2.1531 40.0000
v  33.1641 2.1531 -0.0000
v  83.1641 2.1531 -0.0000
v  33.1641 2.1531 40.0000
v  33.1641 42.1531 40.0000
v  73.1641 12.1531 20.0000
v  43.1641 42.1531 20.0000
v  83.1641 12.1531 20.0000
v  83.1641 42.1531 20.0000
v  33.1641 42.1531 -0.0000
v  83.1641 42.1531 -0.0000
# 16 vertices

vn 0.0000 0.0000 1.0000
vn 0.3162 -0.0000 0.9487
vn 0.3162 0.0000 0.9487
vn 0.0000 -1.0000 -0.0000
vn 0.7071 0.7071 -0.0000
vn 0.0000 1.0000 -0.0000
vn 1.0000 0.0000 -0.0000
vn -1.0000 0.0000 -0.0000
vn 0.0000 0.0000 -1.0000
# 9 vertex normals

vt 0.0000 1.0000 0.0000
vt 0.0000 0.0000 0.0000
vt 1.0000 0.0000 0.0000
vt 1.0000 1.0000 0.0000
vt 1.0000 0.0000 1.0000
vt 1.0000 0.2500 1.0000
vt 0.0000 0.2500 0.0000
vt 0.2000 0.2500 0.0000
vt 0.8000 0.0000 0.0000
vt 0.5000 0.0000 1.0000
vt 0.7500 0.0000 0.0000
vt 0.2000 0.0000 0.0000
vt 0.2000 0.5000 0.0000
vt 1.0000 0.5000 0.0000
vt 0.3333 0.2500 0.0000
vt 0.3333 1.0000 0.0000
# 16 texture coords

g Layer_0
usemtl wire_153228184
s 1
f 1/1/1 2/2/1 3/3/1 4/4/1 
s 2
f 5/1/2 6/2/2 2/5/3 1/6/2 
s 4
f 3/7/4 2/8/4 7/4/4 8/1/4 
f 9/3/4 7/4/4 2/8/4 6/9/4 
s 1
f 6/3/1 5/4/1 10/1/1 9/2/1 
s 4
f 5/1/5 1/10/5 11/5/5 12/4/5 
s 8
f 1/2/6 4/3/6 13/4/6 11/1/6 
s 1
f 13/3/1 14/4/1 12/1/1 11/11/1 
s 8
f 5/12/6 12/13/6 15/1/6 10/2/6 
f 14/14/6 16/4/6 15/1/6 12/13/6 
s 2
f 4/7/7 3/2/7 8/3/7 13/15/7 
f 8/3/7 16/4/7 14/16/7 13/15/7 
f 9/3/8 10/4/8 15/1/8 7/2/8 
s 1
f 16/1/9 8/2/9 7/3/9 15/4/9 
# 14 polygons

