# 3ds Max Wavefront OBJ Exporter v0.97b - (c)2007 guruware
# File Created: 24.07.2013 18:06:34

mtllib EX1_2.mtl

#
# object Layer_0
#

v  138.3038 52.6311 -0.0000
v  88.3037 12.6311 -0.0000
v  88.3037 12.6311 20.0000
v  138.3038 52.6311 20.0000
v  88.3037 52.6311 20.0000
v  88.3037 2.6311 40.0000
v  88.3037 52.6311 40.0000
v  88.3037 2.6311 -0.0000
v  138.3038 2.6311 -0.0000
v  138.3038 52.6311 40.0000
v  138.3038 2.6311 40.0000
# 11 vertices

vn -0.6247 0.7809 -0.0000
vn 0.0000 0.0000 -1.0000
vn -1.0000 0.0000 -0.0000
vn 0.0000 1.0000 -0.0000
vn 1.0000 0.0000 -0.0000
vn 0.0000 -1.0000 -0.0000
vn 0.0000 0.0000 1.0000
# 7 vertex normals

vt 0.0000 1.0000 1.0000
vt 0.0000 0.0000 0.0000
vt 1.0000 0.0000 0.0000
vt 1.0000 1.0000 1.0000
vt 1.0000 1.0000 0.0000
vt -0.0000 1.0000 0.0000
vt 0.5000 1.0000 0.0000
vt 0.5000 0.2000 0.0000
vt 0.0000 0.2000 0.0000
vt 0.0000 1.0000 0.0000
vt 1.0000 0.2000 0.0000
vt -0.0000 0.0000 0.0000
# 12 texture coords

g Layer_0
usemtl wire_153228153
s 1
f 1/1/1 2/2/1 3/3/1 4/4/1 
s 2
f 5/5/2 4/6/2 3/3/2 
s 4
f 5/7/3 3/8/3 6/3/3 7/5/3 
f 2/9/3 8/2/3 6/3/3 3/8/3 
s 2
f 1/10/2 9/2/2 8/3/2 2/11/2 
s 8
f 4/5/4 5/10/4 7/2/4 10/3/4 
s 4
f 10/10/5 11/2/5 9/3/5 4/7/5 
f 9/3/5 1/5/5 4/7/5 
s 1
f 11/12/6 6/3/6 8/5/6 9/6/6 
s 2
f 7/10/7 6/2/7 11/3/7 10/5/7 
# 8 polygons - 2 triangles

