# 3ds Max Wavefront OBJ Exporter v0.97b - (c)2007 guruware
# File Created: 24.07.2013 17:55:35

mtllib EX1_1.mtl

#
# object Layer_0
#

v  88.3933 16.8884 208.0686
v  88.3933 56.8884 208.0686
v  88.3933 56.8884 168.0686
v  88.3933 16.8884 168.0686
v  108.3933 56.8884 208.0686
v  108.3933 56.8884 168.0686
v  108.3933 36.8884 208.0686
v  108.3933 36.8884 168.0686
v  138.3933 36.8884 208.0686
v  138.3933 36.8884 168.0686
v  138.3933 16.8884 208.0686
v  138.3933 16.8884 168.0686
v  118.3933 16.8884 208.0686
v  118.3933 16.8884 168.0686
v  118.3933 26.8884 208.0686
v  118.3933 26.8884 168.0686
v  98.3933 26.8884 208.0686
v  98.3933 26.8884 168.0686
v  98.3933 16.8884 208.0686
v  98.3933 16.8884 168.0686
# 20 vertices

vn -1.0000 0.0000 -0.0000
vn 0.0000 1.0000 -0.0000
vn 1.0000 0.0000 -0.0000
vn 0.0000 -1.0000 -0.0000
vn 0.0000 0.0000 -1.0000
vn 0.0000 0.0000 1.0000
# 6 vertex normals

vt 1.0000 0.0000 0.0000
vt 1.0000 1.0000 0.0000
vt 0.0000 1.0000 0.0000
vt 0.0000 0.0000 0.0000
vt 0.8000 0.0000 0.0000
vt 0.8000 0.2500 0.0000
vt 0.6000 1.0000 0.0000
vt 0.6000 0.5000 0.0000
vt -0.0000 0.5000 0.0000
vt -0.0000 0.0000 0.0000
vt 0.4000 0.2500 0.0000
vt 0.4000 0.0000 0.0000
vt 0.2000 0.0000 0.0000
vt 0.2000 0.2500 0.0000
vt 0.6000 0.2500 0.0000
vt 0.4000 0.5000 0.0000
vt 0.4000 1.0000 0.0000
vt 0.6000 0.0000 0.0000
vt 1.0000 0.5000 0.0000
# 19 texture coords

g Layer_0
usemtl wire_028028177
s 1
f 1/1/1 2/2/1 3/3/1 4/4/1 
s 2
f 2/4/2 5/1/2 6/2/2 3/3/2 
s 1
f 5/3/3 7/4/3 8/1/3 6/2/3 
s 2
f 7/4/2 9/1/2 10/2/2 8/3/2 
s 1
f 9/3/3 11/4/3 12/1/3 10/2/3 
s 2
f 11/4/4 13/1/4 14/2/4 12/3/4 
s 1
f 13/1/1 15/2/1 16/3/1 14/4/1 
s 2
f 15/4/4 17/1/4 18/2/4 16/3/4 
s 1
f 17/3/3 19/4/3 20/1/3 18/2/3 
s 2
f 19/4/4 1/1/4 4/2/4 20/3/4 
s 4
f 20/5/5 4/1/5 3/2/5 18/6/5 
f 6/7/5 8/8/5 18/6/5 3/2/5 
f 10/9/5 12/10/5 16/11/5 8/8/5 
f 12/10/5 14/12/5 16/11/5 
f 16/11/5 18/6/5 8/8/5 
f 1/4/6 19/13/6 17/14/6 2/3/6 
f 2/3/6 17/14/6 15/15/6 7/16/6 
f 2/3/6 7/16/6 5/17/6 
f 13/18/6 11/1/6 9/19/6 15/15/6 
f 9/19/6 7/16/6 15/15/6 
# 16 polygons - 4 triangles

